# xmcd
#
# Track frame offsets:
#	150
#	13445
#	32817
#	51813
#	62687
#	74531
#	89189
#	103476
#	118662
#	138929
#	157216
#	173450
#	194634
#	212732
#	225930
#	239791
#	254821
# Disc length: 3693 seconds
# Revision: 1
# Processed by: cddbd v1.5.1PL0 Copyright (c) Steve Scherf et al.
#
# Submitted via: libkcddb 0.10
#
DISCID=0e0e6b11
DTITLE=The WhirlWind - First Cuts
DYEAR=1900
DGENRE=Unknown
TTITLE0=The Assurance March
TTITLE1=Don't Overlook Salvation
TTITLE2=Keep On The Firing Line
TTITLE3=He Delivered Me
TTITLE4=I Just Keep Trusting My Lord
TTITLE5=I'm Not Ashamed
TTITLE6=I Come To The Garden Alone
TTITLE7=I Shall Not Be Moved
TTITLE8=Amazing Grace
TTITLE9=I Heard Him Calling Me
TTITLE10=Let Us Have A Little Talk With Jesus
TTITLE11=My God Is Real
TTITLE12=Wings Of A Dove
TTITLE13=Power In The Blood
TTITLE14=Why Me, Lord
TTITLE15=I Wouldn't Take Nothing For My Journey Now
TTITLE16=Our God Reigns
EXTD=
EXTT0=
EXTT1=
EXTT2=
EXTT3=
EXTT4=
EXTT5=
EXTT6=
EXTT7=
EXTT8=
EXTT9=
EXTT10=
EXTT11=
EXTT12=
EXTT13=
EXTT14=
EXTT15=
EXTT16=
PLAYORDER=
